<?xml version="1.0" encoding="UTF-8" standalone="no"?>
<!-- Created with Inkscape (http://www.inkscape.org/) -->

<svg
   version="1.1"
   id="svg1"
   width="209.71156"
   height="164.05965"
   viewBox="0 0 209.71156 164.05965"
   xmlns="http://www.w3.org/2000/svg"
   xmlns:svg="http://www.w3.org/2000/svg">
  <defs
     id="defs1" />
  <g
     id="g1"
     transform="translate(-35.0099,-32.34185)">
    <path
       style="fill:#000000"
       d="M 87.666667,196.26826 C 74.088811,194.29153 64.792008,191.29647 57.488613,186.5461 51.489905,182.64434 44.088611,174.50247 40.829062,168.21959 37.677047,162.14398 36.392874,157.87479 35.32542,149.92292 33.950044,139.67722 37.105534,125.94705 44.119534,111.65797 53.9892,91.551266 68.029133,77.191812 94.836163,59.787137 113.12425,47.91345 134.59191,38.484126 153.75771,33.906798 c 5.85442,-1.398198 8.14768,-1.569828 20.90896,-1.564845 15.25413,0.006 17.5939,0.309011 28.61614,3.706449 16.26545,5.013581 32.41484,16.474989 37.03609,26.284933 5.96873,12.670366 5.86186,28.890907 -0.28053,42.581145 -7.52321,16.76782 -17.79054,28.62922 -35.27545,40.75219 -2.64421,1.83333 -7.12047,5.08626 -9.94723,7.22873 -14.79192,11.21112 -34.57962,23.11227 -52.86072,31.79265 -16.74562,7.95129 -28.9285,11.2219 -43.288303,11.62115 -4.95,0.13762 -9.9,0.1192 -11,-0.0409 z"
       id="path1" />
  </g>
</svg>
