<?xml version="1.0" encoding="UTF-8" standalone="no"?>
<!-- Created with Inkscape (http://www.inkscape.org/) -->

<svg
   version="1.1"
   id="svg1"
   width="211.14101"
   height="138.55537"
   viewBox="0 0 211.14101 138.55537"
   xmlns="http://www.w3.org/2000/svg"
   xmlns:svg="http://www.w3.org/2000/svg">
  <defs
     id="defs1" />
  <g
     id="g1"
     transform="translate(-33.986194,-54.581193)">
    <path
       style="fill:#000000"
       d="m 172.66667,192.9327 c -0.91667,-0.17043 -6.6096,-1.08876 -12.65096,-2.04072 -6.04135,-0.95196 -13.54135,-2.46235 -16.66666,-3.35643 -3.12531,-0.89408 -7.33238,-2.0801 -9.34905,-2.63561 -2.01667,-0.55551 -5.61667,-2.05931 -8,-3.34178 -2.38333,-1.28247 -6.43333,-2.91875 -9,-3.63617 -2.56667,-0.71743 -6.31667,-2.16149 -8.33333,-3.20903 -4.10118,-2.13033 -20.8288,-9.14486 -29.000003,-12.16081 -10.305003,-3.80351 -28.184409,-15.6139 -35.349533,-23.35042 -4.268511,-4.60891 -8.330913,-12.41176 -9.580235,-18.40121 -1.665199,-7.98323 -0.473984,-20.10089 2.720708,-27.676447 4.939581,-11.713207 16.759087,-23.566812 30.20906,-30.296212 15.558384,-7.784297 38.261153,-10.301522 58.666663,-6.50481 11.66761,2.170912 14.81827,2.98182 27.66667,7.120782 26.22015,8.446517 46.66843,19.166161 66.13596,34.67059 11.80021,9.397997 19.60044,20.502947 23.24127,33.087927 4.37777,15.13231 0.57611,27.53432 -11.79068,38.46432 -16.93516,14.96761 -23.65094,18.82677 -37.76964,21.70398 -6.57311,1.33951 -17.86266,2.1733 -21.15024,1.56205 z"
       id="path1" />
  </g>
</svg>
