<?xml version="1.0" encoding="UTF-8" standalone="no"?>
<!-- Created with Inkscape (http://www.inkscape.org/) -->

<svg
   version="1.1"
   id="svg1"
   width="142.0313"
   height="209.9718"
   viewBox="0 0 142.0313 209.9718"
   xmlns="http://www.w3.org/2000/svg"
   xmlns:svg="http://www.w3.org/2000/svg">
  <defs
     id="defs1" />
  <g
     id="g1"
     transform="translate(-69.135267,-15.774688)">
    <path
       style="fill:#000000"
       d="m 145,225.59405 c -4.28188,-0.63818 -13.54444,-3.23298 -17.80983,-4.98922 C 114.7014,215.46269 99.919027,202.37394 90.25546,187.90174 77.105105,168.20772 69.063556,139.81502 69.135751,113.33334 69.222773,81.413114 77.972798,53.912104 93.512854,36.716998 101.09339,28.329122 112.85146,21.056729 124.38228,17.624192 c 5.21798,-1.553308 7.18289,-1.779739 15.95105,-1.838163 9.17631,-0.06114 10.39483,0.07564 14.79332,1.660584 17.60423,6.343467 28.32668,19.318771 33.99091,41.132596 1.5036,5.790614 1.63161,7.287496 1.30429,15.251507 -0.34392,8.368028 -0.2775,9.014234 1.26776,12.333333 0.89688,1.926441 1.63363,4.408222 1.63721,5.51507 0.004,1.106848 0.922,5.606848 2.04092,10.000001 1.11893,4.39315 2.21249,10.166 2.43014,12.82855 0.36267,4.43658 0.74978,5.43617 4.63379,11.96544 9.72454,16.34759 10.62418,24.1863 6.1513,53.59763 -1.74768,11.49186 -7.17242,21.94485 -15.87676,30.59314 -6.79111,6.74737 -11.18503,9.4616 -20.26688,12.51936 -6.20693,2.08979 -7.5523,2.29817 -16.106,2.49458 C 151.2,225.79569 146.1,225.75799 145,225.59405 Z"
       id="path1" />
  </g>
</svg>
