<?xml version="1.0" encoding="UTF-8" standalone="no"?>
<!-- Created with Inkscape (http://www.inkscape.org/) -->

<svg
   version="1.1"
   id="svg1"
   width="210.10278"
   height="154.70937"
   viewBox="0 0 210.10278 154.70936"
   xmlns="http://www.w3.org/2000/svg"
   xmlns:svg="http://www.w3.org/2000/svg">
  <defs
     id="defs1" />
  <g
     id="g1"
     transform="translate(-28.427908,-36.366266)">
    <path
       style="fill:#000000"
       d="M 83.333333,190.92077 C 82.416667,190.74694 79.116667,190.1794 76,189.65957 56.414158,186.39284 39.255265,175.29256 32.793072,161.70855 28.99241,153.71927 28.353439,150.92781 28.434347,142.66667 28.555318,130.31498 31.938632,120.80524 40.034514,110.06119 45.013375,103.45374 50.765647,97.546261 57,92.637934 66.125548,85.453358 70.733339,82.95619 98.687558,70.045579 c 5.328162,-2.460801 12.228162,-6.128457 15.333332,-8.150347 7.87663,-5.128754 13.35491,-8.317702 15.31244,-8.913486 0.91667,-0.278992 3.61667,-1.691127 6,-3.138078 8.38716,-5.091943 17.96707,-9.137313 28,-11.823738 1.28334,-0.343627 5.86675,-0.926688 10.18537,-1.295693 20.39944,-1.743032 36.75203,2.887149 48.45121,13.718797 7.83522,7.254211 11.36259,13.610683 14.73714,26.556968 5.25245,20.150705 -0.90158,40.662398 -17.68104,58.931768 -2.5929,2.82313 -12.39776,11.33817 -15.43157,13.40157 -22.90417,15.57785 -53.18734,30.32946 -76.01322,37.02773 -11.70875,3.43593 -17.90231,4.374 -30.58122,4.63178 -6.6,0.13419 -12.75,0.10175 -13.666667,-0.0721 z"
       id="path1" />
  </g>
</svg>
