<?xml version="1.0" encoding="UTF-8" standalone="no"?>
<!-- Created with Inkscape (http://www.inkscape.org/) -->

<svg
   version="1.1"
   id="svg1"
   width="194.57574"
   height="209.7813"
   viewBox="0 0 194.57574 209.78129"
   xmlns="http://www.w3.org/2000/svg"
   xmlns:svg="http://www.w3.org/2000/svg">
  <defs
     id="defs1" />
  <g
     id="g1"
     transform="translate(-36.666669,-16.732868)">
    <path
       style="fill:#000000"
       d="m 161.24128,225.67268 c -8.22523,-1.3848 -13.4777,-2.88741 -20.40102,-5.83627 -5.99777,-2.55463 -6.98945,-2.77575 -12.67359,-2.82587 C 124.775,216.98063 122,217.18493 122,217.46453 c 0,0.27961 -1.1676,1.10404 -2.59468,1.83208 -2.26176,1.15387 -4.07943,1.3383 -14.16666,1.43741 -11.682265,0.11479 -14.295341,-0.21121 -21.407776,-2.67076 -10.263032,-3.54907 -21.53948,-11.97599 -27.076024,-20.23398 -8.019264,-11.96107 -9.458171,-14.76221 -12.408212,-24.15527 -1.613474,-5.13737 -3.384116,-11.14067 -3.93476,-13.34067 -1.576253,-6.29763 -3.745221,-23.95002 -3.745221,-30.48089 0,-6.59405 1.927302,-20.48139 4.050437,-29.18578 C 47.079434,74.582525 62.505281,53.554087 80.987354,45.770466 88.161109,42.74928 91.659213,41.977703 100.16667,41.540087 105.41964,41.269879 108,40.883132 108,40.366019 c 0,-0.424121 -1.05,-1.788829 -2.33333,-3.032685 -1.84367,-1.786948 -2.33334,-2.782292 -2.33334,-4.74292 0,-3.569268 0.41341,-4.272108 4.16133,-7.07482 7.42888,-5.555354 9.33063,-6.68585 13.23648,-7.868448 3.57664,-1.082918 4.77226,-1.143472 9.83685,-0.4982 3.17094,0.404004 8.642,1.659364 12.1579,2.789689 6.10207,1.961743 6.63846,2.293549 11.80365,7.301536 2.9761,2.88552 6.42176,5.725998 7.65703,6.312172 1.23527,0.586173 5.75176,1.808319 10.03663,2.715878 20.06055,4.24893 39.13109,17.925384 47.1523,33.815307 5.36795,10.633854 9.09652,23.52195 11.03258,38.134982 0.84871,6.40598 0.99337,11.41396 0.68693,23.78149 -0.42538,17.16757 -1.01927,22.86205 -3.46377,33.21175 -6.6563,28.18198 -19.07132,46.18112 -38.48366,55.79315 -4.12349,2.04175 -8.23283,3.47205 -12.48091,4.34412 -7.21652,1.48144 -8.40095,1.50629 -15.42539,0.32366 z"
       id="path1" />
  </g>
</svg>
