<?xml version="1.0" encoding="UTF-8" standalone="no"?>
<!-- Created with Inkscape (http://www.inkscape.org/) -->

<svg
   version="1.1"
   id="svg1"
   width="209.84592"
   height="186.82091"
   viewBox="0 0 209.84592 186.82091"
   xmlns="http://www.w3.org/2000/svg"
   xmlns:svg="http://www.w3.org/2000/svg">
  <defs
     id="defs1" />
  <g
     id="g1"
     transform="translate(-36.25981,-30.860141)">
    <path
       style="fill:#000000"
       d="m 189,217.55516 c -14.90929,-1.8362 -20.34262,-3.60241 -37,-12.0276 -8.0198,-4.05637 -16.32013,-7.68535 -21.66667,-9.47288 -10.88751,-3.64005 -14.98416,-5.67863 -23.32069,-11.60485 C 95.241169,176.0818 89.11212,169.52321 78.868549,154.33334 74.469719,147.81045 70.246102,143.23163 61.035744,135.00083 51.34637,126.34195 44.52938,114.50832 42.387756,102.62973 40.083068,89.846694 39.158743,81.770558 38.843988,71.666668 c -0.321818,-10.330648 -0.274558,-10.834676 1.500217,-16 1.2592,-3.66479 1.900223,-7.036566 2.048968,-10.777544 0.20432,-5.138748 0.109836,-5.578387 -1.683986,-7.835619 -1.045249,-1.315274 -2.563219,-2.928084 -3.373267,-3.58402 -1.343212,-1.087668 -1.377447,-1.271761 -0.389049,-2.092058 0.918338,-0.762153 1.504145,-0.709879 3.837829,0.342466 3.84126,1.732167 6.546998,5.774049 9.919885,14.818508 0.452276,1.212786 2.600705,3.751858 4.774286,5.642381 C 60.530243,56.574331 67.170465,64.402944 76,76.374547 c 3.85,5.220057 10.17564,13.646262 14.056977,18.7249 3.881338,5.078643 9.330449,12.683893 12.109133,16.900553 5.37786,8.16091 9.65706,12.7525 16.2483,17.43444 2.24459,1.59439 7.64459,5.48583 12,8.64764 9.99401,7.25515 24.44108,16.9576 27.88685,18.72841 3.86237,1.98491 8.93196,3.62287 16.93455,5.47148 3.90364,0.90175 9.64752,2.23047 12.76419,2.95271 11.47156,2.65837 37.77545,9.54776 42.31849,11.08387 9.12116,3.08407 12.05329,4.71782 14.21452,7.92016 2.08789,3.09365 2.09414,3.76129 0.0353,3.76129 -0.78101,0 -1.34694,0.64953 -1.59739,1.83334 -0.21333,1.00833 -0.54049,2.57102 -0.72703,3.47265 -1.16862,5.64826 -6.24212,11.86623 -12.91051,15.8228 -4.32727,2.56752 -14.29514,6.11095 -20,7.10971 -5.89629,1.03227 -16.87178,1.74298 -20.33333,1.31666 z"
       id="path1" />
  </g>
</svg>
