<?xml version="1.0" encoding="UTF-8" standalone="no"?>
<!-- Created with Inkscape (http://www.inkscape.org/) -->

<svg
   version="1.1"
   id="svg1"
   width="209.66667"
   height="145.05811"
   viewBox="0 0 209.66667 145.0581"
   xmlns="http://www.w3.org/2000/svg"
   xmlns:svg="http://www.w3.org/2000/svg">
  <defs
     id="defs1" />
  <g
     id="g1"
     transform="translate(-32,-49.494582)">
    <path
       style="fill:#000000"
       d="m 185,194.19236 c -7.21333,-0.67672 -25.07325,-3.78333 -30.06264,-5.2292 -3.09329,-0.8964 -5.9361,-1.62982 -6.31734,-1.62982 -0.38125,0 -1.97901,-0.58577 -3.55059,-1.30171 -1.57157,-0.71593 -4.63012,-1.61009 -6.79675,-1.98702 C 131.63202,182.88935 126.04298,181.04436 117,177.02232 105.05938,171.7115 101.46953,169.8496 96.565539,166.42384 92.506786,163.58854 85.512437,160.0428 82,159.03993 77.974564,157.89059 54.543123,145.60248 50.048261,142.28353 43.599147,137.5216 38.403522,131.52043 35.498687,125.47815 c -2.213932,-4.60514 -2.317929,-5.13517 -2.019401,-10.29207 0.203158,-3.50944 -0.0033,-6.49355 -0.582274,-8.41744 C 32.403655,105.12934 32,100.81492 32,97.181036 32,91.297511 32.230019,90.013257 34.10046,85.453657 38.813166,73.965428 45.838292,66.879699 59,60.339315 69.294228,55.223855 71.385081,54.458345 80.995532,52.28624 91.674687,49.872593 102.5552,49.1571 121.33333,49.633666 c 22.89946,0.581159 28.60441,1.284356 41,5.053692 2.2,0.668991 6.96197,1.871061 10.58214,2.671267 5.216,1.152946 8.94495,2.626683 17.96624,7.100534 6.26126,3.105088 14.38111,7.640804 18.04412,10.07937 7.82232,5.207529 17.39003,14.070397 20.49614,18.986213 1.20773,1.911393 3.31114,4.97526 4.67424,6.808598 1.3631,1.83333 3.62408,5.73333 5.02441,8.66666 l 2.54605,5.33334 -0.0775,9.33333 c -0.0907,10.9321 -0.60215,12.80844 -8.28603,30.40084 -4.98606,11.4157 -5.97041,14.07947 -7.24256,19.59916 -1.90218,8.25326 -11.27784,16.80219 -21.99433,20.05488 -2.87548,0.87278 -12.30075,1.10552 -19.06628,0.47081 z"
       id="path1" />
  </g>
</svg>
