<?xml version="1.0" encoding="UTF-8" standalone="no"?>
<!-- Created with Inkscape (http://www.inkscape.org/) -->

<svg
   version="1.1"
   id="svg1"
   width="159.25385"
   height="207.19395"
   viewBox="0 0 159.25385 207.19395"
   xmlns="http://www.w3.org/2000/svg"
   xmlns:svg="http://www.w3.org/2000/svg">
  <defs
     id="defs1" />
  <g
     id="g1"
     transform="translate(-49.999998,-16.80604)">
    <path
       style="fill:#000000"
       d="M 50.444444,223.55556 C 50.2,223.31112 50,222.46724 50,221.68029 c 0,-2.57295 4.342699,-5.78084 21.666667,-16.00483 8.760018,-5.16986 10.991985,-6.86913 18,-13.70404 4.4,-4.29131 10.406243,-9.45814 13.347213,-11.48186 4.9009,-3.37236 28.34827,-26.28499 38.02339,-37.15622 1.79478,-2.01667 7.03383,-7.56667 11.64232,-12.33334 11.14094,-11.52331 17.95587,-20.71378 22.49282,-30.33333 5.50426,-11.670504 11.49415,-25.243994 12.9446,-29.333335 2.5568,-7.208512 9.23179,-34.920623 9.38986,-38.983249 0.22262,-5.721421 -1.78975,-8.708395 -8.10151,-12.025129 -2.55167,-1.340864 -4.80487,-2.869159 -5.00712,-3.396212 -0.38321,-0.998615 10.37919,4.372439 12.38542,6.181034 0.61434,0.553827 1.87721,2.555692 2.80638,4.44859 0.92916,1.892897 3.05968,5.523542 4.73448,8.068099 6.05975,9.206683 6.40957,16.019312 1.72537,33.601052 -3.4373,12.901616 -6.54916,20.854369 -13.70788,35.03224 -10.12305,20.04871 -14.03694,24.88321 -49.71359,61.40691 -14.4722,14.8158 -29.89772,28.37041 -39.22237,34.46523 -2.79,1.82361 -8.822717,5.12887 -13.40605,7.34503 -4.583333,2.21616 -14.068143,6.84046 -21.077354,10.27623 C 59.347658,222.44661 55.520931,224 53.533757,224 c -1.454677,0 -2.844868,-0.2 -3.089313,-0.44444 z"
       id="path1" />
  </g>
</svg>
