<?xml version="1.0" encoding="UTF-8" standalone="no"?>
<!-- Created with Inkscape (http://www.inkscape.org/) -->

<svg
   version="1.1"
   id="svg1"
   width="149.63953"
   height="210.39178"
   viewBox="0 0 149.63953 210.39178"
   xmlns="http://www.w3.org/2000/svg"
   xmlns:svg="http://www.w3.org/2000/svg">
  <defs
     id="defs1" />
  <g
     id="g1"
     transform="translate(-69.973265,-12.736199)">
    <path
       style="fill:#000000"
       d="M 108.33333,222.69327 C 91.946887,220.46816 76.351245,209.11888 72.672583,196.74218 69.491334,186.039 69.099786,173.16402 71.616019,162 c 1.854131,-8.2264 2.786188,-10.84337 6.479569,-18.19294 4.731153,-9.41467 11.234699,-17.20357 17.237745,-20.6446 4.560939,-2.61439 7.819977,-6.34261 8.592177,-9.82912 0.39447,-1.78108 1.25165,-3.40631 2.10967,-4 4.59912,-3.18226 5.52574,-5.51365 6.35797,-15.996638 0.21817,-2.748148 0.5504,-5.245356 0.73828,-5.549352 0.18788,-0.303995 -0.31984,-1.256779 -1.12825,-2.117298 -1.51308,-1.610594 -1.99991,-5.414497 -0.91198,-7.125842 0.30682,-0.482648 0.46241,-4.178714 0.34575,-8.21348 -0.44466,-15.378654 3.26531,-29.637503 10.43717,-40.114049 3.34018,-4.87928 5.90279,-7.308052 11.79255,-11.176621 8.37197,-5.498969 18.35873,-7.375428 30.47904,-5.726851 23.42757,3.186565 39.84117,16.786451 48.70228,40.353459 6.2576,16.642715 8.56109,41.147071 5.26419,56.000002 -2.97005,13.38041 -9.15029,31.04319 -13.62902,38.95092 -8.64344,15.26104 -23.49817,33.84391 -39.22299,49.06692 -9.84468,9.53051 -15.13544,13.42421 -24.92684,18.34472 -12.14494,6.10326 -21.61151,8.07469 -32,6.66404 z"
       id="path1" />
  </g>
</svg>
