<?xml version="1.0" encoding="UTF-8" standalone="no"?>
<!-- Created with Inkscape (http://www.inkscape.org/) -->

<svg
   version="1.1"
   id="svg1"
   width="209.00949"
   height="170.53769"
   viewBox="0 0 209.00949 170.53769"
   xmlns="http://www.w3.org/2000/svg"
   xmlns:svg="http://www.w3.org/2000/svg">
  <defs
     id="defs1" />
  <g
     id="g1"
     transform="translate(-27.667364,-24.666668)">
    <path
       style="fill:#000000"
       d="m 143,194.85137 c -3.69441,-0.35721 -22.97219,-3.97167 -27.92552,-5.23586 -13.09932,-3.34322 -33.833626,-11.11169 -43.685485,-16.36753 -18.91213,-10.08938 -31.503122,-22.16775 -39.231854,-37.63459 -3.693983,-7.39245 -4.48896,-11.16037 -4.489776,-21.28005 -6.25e-4,-7.76173 0.194915,-9.23636 1.872691,-14.12255 1.030364,-3.000741 3.410033,-7.950741 5.288154,-11.000005 1.87812,-3.049264 5.293756,-9.294117 7.590302,-13.87745 5.109576,-10.197437 11.081297,-18.222624 18.885303,-25.379295 9.662467,-8.860974 18.582298,-14.085235 27.334479,-16.009548 1.665605,-0.366211 6.178373,-2.142542 10.028373,-3.947402 8.750453,-4.102168 13.457963,-5.330423 20.429813,-5.330423 6.27815,0 10.60435,0.812076 26.90352,5.050087 22.68811,5.899226 36.13119,10.669523 50.95721,18.082237 11.6386,5.819066 19.28938,12.700548 27.23392,24.495509 7.14809,10.612488 10.16047,18.357027 12.01614,30.89229 0.96838,6.54148 0.47195,13.48896 -1.79683,25.14655 -3.29125,16.91134 -12.61815,36.06745 -22.0723,45.33333 -10.58079,10.37008 -29.70015,19.17621 -45.58677,20.99667 -5.5088,0.63126 -18.13353,0.7312 -23.75137,0.18803 z"
       id="path1" />
  </g>
</svg>
