<?xml version="1.0" encoding="UTF-8" standalone="no"?>
<!-- Created with Inkscape (http://www.inkscape.org/) -->

<svg
   version="1.1"
   id="svg1"
   width="210.28883"
   height="190.85979"
   viewBox="0 0 210.28883 190.85979"
   xmlns="http://www.w3.org/2000/svg"
   xmlns:svg="http://www.w3.org/2000/svg">
  <defs
     id="defs1" />
  <g
     id="g1"
     transform="translate(-28.920811,-27.719501)">
    <path
       style="fill:#000000"
       d="M 75,217.36117 C 69.217912,215.83459 64.082313,213.82008 60.070904,211.50503 37.439207,198.44391 26.732462,177.49039 29.292534,151.27058 31.085055,132.9119 34.329941,122.49586 42.460995,109 46.845934,101.72192 52.173162,95.178397 61.646921,85.433623 71.284062,75.520793 79.617671,68.81151 96,57.776394 c 13.47029,-9.073572 21.09306,-13.429707 34.33687,-19.622267 17.02292,-7.959606 27.62329,-10.454758 44.3298,-10.434503 14.18158,0.01719 21.19079,1.481406 32.66666,6.824011 6.69854,3.11851 11.38375,6.380525 17.06066,11.878255 12.15043,11.766934 17.6874,32.885675 13.35033,50.919926 -1.53111,6.366604 -6.44053,20.020354 -10.1541,28.239884 -6.43929,14.25261 -13.45129,22.97532 -22.25689,27.68688 -3.61806,1.9359 -12.88968,4.73142 -15.6922,4.73142 -1.88364,0 -6.34455,3.2688 -10.53233,7.71772 -2.27962,2.42177 -4.5357,4.03255 -7.06255,5.04246 -4.70254,1.87949 -5.15368,2.16151 -16.34075,10.21524 -5.88285,4.23515 -11.63349,9.09986 -15.66667,13.25309 -12.84985,13.23236 -24.88781,19.30626 -46.435115,23.42942 C 86.712534,218.97659 80.758867,218.88162 75,217.36117 Z"
       id="path1" />
  </g>
</svg>
