<?xml version="1.0" encoding="UTF-8" standalone="no"?>
<!-- Created with Inkscape (http://www.inkscape.org/) -->

<svg
   version="1.1"
   id="svg1"
   width="210.27896"
   height="137.79126"
   viewBox="0 0 210.27896 137.79126"
   xmlns="http://www.w3.org/2000/svg"
   xmlns:svg="http://www.w3.org/2000/svg">
  <defs
     id="defs1" />
  <g
     id="g1"
     transform="translate(-25.35582,-48.773114)">
    <path
       style="fill:#000000"
       d="M 90.333333,185.90979 C 64.212517,182.01849 50.084556,175.87484 36.800534,162.63064 26.883474,152.74331 23.404805,142.73607 26.390262,132.68294 28.505453,125.56032 44.25858,100.71032 52.835707,90.966189 55.595415,87.830995 71.69864,76.322116 78.666667,72.504957 81.05,71.199341 85.1,69.382625 87.666667,68.467809 90.233333,67.552994 95.280252,65.287674 98.882042,63.433765 116.20053,54.519614 133.16994,50.32733 158,48.828707 c 10.20812,-0.616113 34.56343,3.993902 45.50039,8.612388 13.92696,5.881114 28.49139,21.307413 31.05455,32.89224 2.14051,9.674565 1.21678,16.100025 -3.83363,26.666665 -3.86726,8.09123 -7.90404,13.54708 -14.06459,19.00882 -3.14272,2.78624 -5.34643,5.44816 -6.80696,8.2223 -2.76884,5.25919 -7.66947,10.11792 -16.84976,16.70569 -13.69535,9.82778 -23.54752,14.45161 -40.33333,18.92929 -9.25437,2.46863 -21.42456,5.19075 -27.33334,6.11366 -5.21317,0.81426 -29.3889,0.76593 -34.999997,-0.07 z"
       id="path1" />
  </g>
</svg>
